<svg width="60" height="60" viewBox="0 0 60 60" fill="none" xmlns="http://www.w3.org/2000/svg">
<rect width="60" height="60" fill="white"/>
<path fill-rule="evenodd" clip-rule="evenodd" d="M28.5514 5.82412C29.4495 5.31318 30.5505 5.31318 31.4486 5.82412C35.4246 8.08604 46.4774 14.3738 50.4916 16.6574C51.4072 17.1783 51.9727 18.1506 51.9727 19.2039C51.9727 23.7681 51.9727 36.2319 51.9727 40.7961C51.9727 41.8494 51.4072 42.8217 50.4916 43.3426C46.4774 45.6262 35.4246 51.914 31.4486 54.1759C30.5505 54.6868 29.4495 54.6868 28.5514 54.1759C24.5754 51.914 13.5226 45.6262 9.5084 43.3426C8.59277 42.8217 8.02734 41.8494 8.02734 40.7961C8.02734 36.2319 8.02734 23.7681 8.02734 19.2039C8.02734 18.1506 8.59277 17.1783 9.5084 16.6574C13.5226 14.3738 24.5754 8.08604 28.5514 5.82412V5.82412ZM13.3171 20.5766V39.4234L30 48.9143L46.6829 39.4234V20.5766L30 11.0857L13.3171 20.5766V20.5766Z" fill="url(#paint0_linear_351_1167)"/>
<path fill-rule="evenodd" clip-rule="evenodd" d="M51.397 42.3535C52.1246 41.0933 51.6921 39.4794 50.4318 38.7517L31.3184 27.7166C30.0581 26.989 28.4442 27.4214 27.7166 28.6816C26.989 29.942 27.4214 31.5558 28.6816 32.2835L47.7951 43.3186C49.0554 44.0463 50.6693 43.6139 51.397 42.3535V42.3535Z" fill="#8256BD"/>
<path fill-rule="evenodd" clip-rule="evenodd" d="M51.397 17.6465C50.6693 16.3861 49.0554 15.9537 47.7951 16.6813L28.6816 27.7165C27.4214 28.4441 26.989 30.058 27.7166 31.3184C28.4442 32.5786 30.0581 33.011 31.3184 32.2834L50.4318 21.2482C51.6921 20.5206 52.1246 18.9067 51.397 17.6465V17.6465Z" fill="url(#paint1_linear_351_1167)"/>
<defs>
<linearGradient id="paint0_linear_351_1167" x1="29.8728" y1="4.20803" x2="29.8728" y2="55.2877" gradientUnits="userSpaceOnUse">
<stop stop-color="#C85697"/>
<stop offset="1" stop-color="#5F56C8"/>
</linearGradient>
<linearGradient id="paint1_linear_351_1167" x1="25.8849" y1="32.3759" x2="53.2286" y2="16.589" gradientUnits="userSpaceOnUse">
<stop stop-color="#8256BD"/>
<stop offset="1" stop-color="#B656A7"/>
</linearGradient>
</defs>
</svg>
