<svg width="60" height="60" viewBox="0 0 60 60" fill="none" xmlns="http://www.w3.org/2000/svg">
<rect width="60" height="60" fill="white"/>
<path fill-rule="evenodd" clip-rule="evenodd" d="M21.9014 9.82723C21.3491 9.82723 20.9014 10.2749 20.9014 10.8272V35.8302C20.9014 36.3923 21.3645 36.844 21.9265 36.8299L32.5358 36.5636C37.1457 36.4479 40.8225 32.6776 40.8225 28.0663V23.0914V18.3272C40.8225 13.6328 37.0169 9.82723 32.3225 9.82723H30.8619H21.9014ZM26.8485 14.4962C26.5724 14.4962 26.3485 14.7201 26.3485 14.9962V31.531C26.3485 31.8071 26.5724 32.031 26.8485 32.031H31.3753C33.5844 32.031 35.3753 30.2401 35.3753 28.031V18.4962C35.3753 16.2871 33.5844 14.4962 31.3753 14.4962H26.8485Z" fill="#2F302F"/>
<path d="M45.2405 31.8404L44.5793 30.035C44.3937 29.5282 43.8395 29.2601 43.3269 29.4292L14.1272 39.0651C13.5807 39.2455 13.2988 39.8489 13.5112 40.3838L14.4533 42.7565C14.4976 42.8681 14.5593 42.9688 14.6413 43.0566C16.9721 45.5515 23.1777 50.292 30.395 50.292C37.9096 50.292 43.3749 46.0189 46.0713 43.349C46.4513 42.9727 46.4428 42.3642 46.0698 41.981L43.7042 39.5506C43.2973 39.1325 42.6153 39.1424 42.1912 39.5429C40.4967 41.1435 36.099 44.6892 30.395 44.6892C25.5392 44.6892 22.008 42.2337 20.8494 41.0059L44.6159 33.1336C45.1518 32.9561 45.4346 32.3705 45.2405 31.8404Z" fill="#27DB94"/>
</svg>
