<svg width="60" height="60" viewBox="0 0 60 60" fill="none" xmlns="http://www.w3.org/2000/svg">
<rect width="60" height="60" fill="#262B3A"/>
<path d="M30 60C13.45 60 0 46.55 0 30C0 13.45 13.45 0 30 0C46.55 0 60 13.45 60 30C60 46.55 46.55 60 30 60Z" fill="#262B3A"/>
<path d="M14.2501 41.15C13.4501 41.15 12.8501 40.5 12.8501 39.75V20.25C12.8501 19.75 13.1501 19.25 13.6001 19C13.6501 19 13.7001 18.95 13.7001 18.95C13.8001 18.9 13.8501 18.9 13.9501 18.85C14.0001 18.85 14.0501 18.85 14.1001 18.85C14.1501 18.85 14.2001 18.85 14.2501 18.85H30.3501C30.3001 20.2 29.7501 21.5 28.8001 22.45L28.6501 22.6L28.8001 22.8C28.9501 23 29.1001 23.25 29.2001 23.45C29.9501 24.85 30.4001 26.4 30.4001 29.85V30.1C30.4001 33.55 29.9501 35.1 29.2001 36.5C28.4001 37.95 27.2501 39.15 25.8001 39.9C24.4001 40.65 22.8501 41.1 19.4001 41.1H14.2501V41.15ZM17.7001 36.3H19.3501C22.2501 36.3 22.9501 35.9 23.4501 35.65C24.0501 35.35 24.5501 34.85 24.8501 34.25C25.1001 33.75 25.5001 33.05 25.5001 30.15V29.9C25.5001 27 25.1001 26.3 24.8501 25.8C24.5501 25.2 24.0501 24.7 23.4501 24.4C22.9501 24.15 22.2501 23.75 19.3501 23.75H17.7001V36.3V36.3Z" fill="#FD4974"/>
<path d="M46.8501 33.75C47.0001 33.75 47.1001 33.65 47.1001 33.5C47.1501 33.1 47.1501 32.45 47.1501 31.25C47.1501 30.7 47.0501 30.15 46.9501 29.6C46.1001 26.15 43.5501 24.2 40.0001 24.2C37.8501 24.2 36.0501 24.95 34.7501 26.35C33.5501 27.65 32.8501 29.5 32.8501 31.45V34C32.8501 37.95 36.0501 41.15 40.0001 41.15H41.0001C43.2501 41.15 45.3001 40.05 46.4501 38.3C46.5501 38.15 46.5001 38 46.3501 37.9L43.8001 36.4C43.7001 36.35 43.5001 36.35 43.4501 36.45C42.8501 37.3 41.8501 37.8 40.8501 37.8H40.0001C38.2501 37.8 36.8001 36.4 36.7501 34.65V33.75H46.8501ZM36.7501 30.95V30.65C36.8501 28.95 38.2001 27.75 39.9501 27.7C40.0001 27.7 40.0001 27.7 40.0501 27.7C41.0001 27.7 41.7501 27.95 42.3001 28.5C42.6501 28.85 42.9001 29.2 43.0501 29.65C43.1501 29.95 43.2501 30.3 43.2501 30.65V30.95H36.7501Z" fill="#FD4974"/>
</svg>
