<svg width="60" height="60" viewBox="0 0 60 60" fill="none" xmlns="http://www.w3.org/2000/svg">
<rect width="60" height="60" fill="white"/>
<g clip-path="url(#clip0_351_1116)">
<path fill-rule="evenodd" clip-rule="evenodd" d="M33.015 21.9273C31.2275 21.9273 29.7775 20.4773 29.7775 18.6898C29.7775 16.8935 31.2275 15.4435 33.015 15.4435C34.8013 15.4435 36.2525 16.8935 36.2525 18.6898C36.2525 20.4773 34.8013 21.9273 33.015 21.9273ZM45.8764 16.4385L34.845 10.4622C33.6975 9.84594 32.3213 9.84594 31.185 10.4622L20.1537 16.4385C18.9086 17.1097 18.1399 18.4098 18.1399 19.8173V27.4811L24.7212 23.9198C25.8575 23.3023 27.2337 23.3023 28.3812 23.9198L39.4126 29.8961C40.6576 30.5661 41.4263 31.8661 41.4263 33.2736V46.1575C41.4263 46.5462 41.3626 46.9362 41.2538 47.2937H44.0463C46.1676 47.2937 47.8901 45.5725 47.8901 43.4387V19.8173C47.8901 18.4098 47.1214 17.1097 45.8764 16.4385Z" fill="#00DF9B"/>
<path fill-rule="evenodd" clip-rule="evenodd" d="M33.0114 21.9212C31.2227 21.9212 29.7727 20.4712 29.7727 18.6824C29.7727 16.8936 31.2227 15.4436 33.0114 15.4436C34.8002 15.4436 36.2502 16.8936 36.2502 18.6824C36.2502 20.4712 34.8002 21.9212 33.0114 21.9212ZM45.8753 16.4349L34.8414 10.4636C33.7002 9.84608 32.3227 9.84608 31.1802 10.4636L20.1463 16.4349C18.9051 17.1074 18.1326 18.4049 18.1326 19.8174V43.4388C18.1326 45.5626 19.8538 47.2839 21.9776 47.2839H44.0453C46.1678 47.2839 47.8903 45.5626 47.8903 43.4388V19.8174C47.8903 18.4049 47.1165 17.1074 45.8753 16.4349Z" fill="#00DF9B"/>
<path fill-rule="evenodd" clip-rule="evenodd" d="M37.5782 50.0001H15.5118C13.3868 50.0001 11.6667 48.2788 11.6667 46.155V33.2712C11.6667 31.8599 12.4393 30.5612 13.6805 29.8899L24.7143 23.9174C25.8569 23.2999 27.2344 23.2999 28.3756 23.9174L39.4095 29.8899C40.6507 30.5612 41.4232 31.8599 41.4232 33.2712V46.155C41.4232 48.2788 39.702 50.0001 37.5782 50.0001Z" fill="#2471FE"/>
</g>
<defs>
<clipPath id="clip0_351_1116">
<rect width="40" height="40" fill="white" transform="translate(10 10)"/>
</clipPath>
</defs>
</svg>
