<svg width="60" height="60" viewBox="0 0 60 60" fill="none" xmlns="http://www.w3.org/2000/svg">
<rect width="60" height="60" fill="black"/>
<path d="M30 60C46.5685 60 60 46.5685 60 30C60 13.4315 46.5685 0 30 0C13.4315 0 0 13.4315 0 30C0 46.5685 13.4315 60 30 60Z" fill="black"/>
<path d="M40.9001 39.65C38.0001 42.25 34.1001 43.7 30.0001 43.7C25.9001 43.7 22.0001 42.25 19.1001 39.65C17.8501 40.4 16.8501 41.5 16.1001 43C19.8501 46.35 24.7501 48.2 30.0001 48.2C35.2501 48.2 40.1501 46.35 43.9001 43C43.1501 41.5 42.1501 40.4 40.9001 39.65Z" fill="#FD4974"/>
<path d="M30 37.85C35.05 37.85 40.25 34.55 40.25 27.35V24.85C40.25 24.35 39.85 23.95 39.35 23.95H31.4C30.9 23.95 30.5 24.35 30.5 24.85V26.7C30.5 27.2 30.9 27.6 31.4 27.6H35.5C35.5 31.7 33 33.45 30.05 33.45C26.95 33.45 24.6 31.1 24.6 26.9V24.1C24.6 18.95 26.95 17.55 30.05 17.55C32.2 17.55 34.15 17.85 35.15 20.1C35.3 20.4 35.6 20.65 35.95 20.65H39C39.55 20.65 40 20.1 39.85 19.55C38.6 14.65 34.25 12.95 30 12.95C24.95 12.95 19.75 16.25 19.75 23.45V27.35C19.75 34.55 24.95 37.85 30 37.85Z" fill="white"/>
</svg>
