<svg width="60" height="60" viewBox="0 0 60 60" fill="none" xmlns="http://www.w3.org/2000/svg">
<rect width="60" height="60" fill="url(#paint0_linear_351_1160)"/>
<path fill-rule="evenodd" clip-rule="evenodd" d="M17.4589 8.95407C18.5309 9.13653 24.754 11.5097 25.5414 12.278C27.8112 14.2727 28.5133 17.4737 28.6823 18.5227C29.581 23.0582 30.1345 34.7308 25.9431 44.8163C25.0632 46.8697 22.8863 48.9289 21.6328 49.8505C21.036 50.2652 19.6554 51.1785 19.2496 51.4141C18.982 51.5694 16.8841 52.2436 17.1274 49.477C17.1274 48.0819 22.0444 31.774 15.2136 12.278C14.1478 9.04608 16.3869 8.7716 17.4589 8.95407Z" fill="white"/>
<path fill-rule="evenodd" clip-rule="evenodd" d="M36.0126 19.6903C37.0638 20.1913 39.8466 22.4056 40.178 22.9864C41.17 24.5321 41.0439 26.5199 40.9669 27.1612C40.7321 29.9616 39.1 36.8741 34.9614 42.0645C34.1034 43.1167 32.4865 43.9552 31.5997 44.2836C31.1071 44.4512 29.8672 44.8213 29.8672 44.8213C29.8672 44.8213 28.4244 44.8862 29.03 43.3106C29.2637 42.4955 34.8687 33.7912 34.1439 21.2562C34.0626 19.1894 34.9615 19.1894 36.0126 19.6903Z" fill="white"/>
<path fill-rule="evenodd" clip-rule="evenodd" d="M45.1639 30.6869C46.1705 32.1409 46.695 32.992 46.7374 33.2401C47.0673 34.2789 46.5145 35.282 46.3498 35.6074C45.6844 37.0479 43.342 40.2181 40.144 42.1727C39.4855 42.5653 38.6074 42.88 38.0734 42.883C37.7797 42.8768 37.0504 42.8337 37.0504 42.8337C37.0504 42.8337 36.2723 42.5896 36.8979 41.8705C37.1793 41.4832 41.834 37.9474 43.8701 31.1568C44.1074 30.4153 44.5387 30.2587 45.1639 30.6869Z" fill="white"/>
<defs>
<linearGradient id="paint0_linear_351_1160" x1="0" y1="30" x2="60" y2="30" gradientUnits="userSpaceOnUse">
<stop stop-color="#05C5FF"/>
<stop offset="1" stop-color="#2164FF"/>
</linearGradient>
</defs>
</svg>
