<svg width="60" height="60" viewBox="0 0 60 60" fill="none" xmlns="http://www.w3.org/2000/svg">
<rect width="60" height="60" fill="#2081E2"/>
<path d="M60 30C60 46.5676 46.5676 60 30 60C13.4324 60 0 46.5676 0 30C0 13.4324 13.4324 0 30 0C46.5711 0 60 13.4324 60 30Z" fill="#2081E2"/>
<path d="M14.8007 31.0081L14.9301 30.8046L22.7343 18.5959C22.8484 18.4172 23.1165 18.4357 23.2028 18.6298C24.5066 21.5518 25.6316 25.1857 25.1045 27.4481C24.8795 28.3789 24.2631 29.6395 23.5696 30.8046C23.4802 30.9742 23.3816 31.1406 23.2768 31.3009C23.2274 31.3748 23.1442 31.418 23.0548 31.418H15.0287C14.813 31.418 14.6866 31.1837 14.8007 31.0081Z" fill="white"/>
<path d="M49.5867 33.2766V35.2091C49.5867 35.3201 49.5189 35.4187 49.4203 35.4619C48.8162 35.7208 46.748 36.6701 45.8881 37.866C43.6935 40.9205 42.0168 45.288 38.2688 45.288H22.6327C17.0909 45.288 12.6001 40.7818 12.6001 35.2214V35.0427C12.6001 34.8947 12.7203 34.7746 12.8682 34.7746H21.5848C21.7574 34.7746 21.8837 34.9348 21.8684 35.1043C21.8067 35.6714 21.9115 36.2509 22.1796 36.778C22.6974 37.829 23.7701 38.4856 24.929 38.4856H29.2441V35.1167H24.9783C24.7595 35.1167 24.63 34.8639 24.7564 34.6852C24.8026 34.6142 24.855 34.5403 24.9105 34.4571C25.3143 33.8838 25.8906 32.993 26.4639 31.979C26.8554 31.2947 27.2345 30.5642 27.5396 29.8307C27.6013 29.6981 27.6506 29.5625 27.6999 29.4299C27.7831 29.1957 27.8694 28.9769 27.9311 28.7581C27.9927 28.5731 28.042 28.3789 28.0913 28.1971C28.2362 27.5744 28.2978 26.9149 28.2978 26.2306C28.2978 25.9625 28.2855 25.682 28.2609 25.4138C28.2485 25.121 28.2116 24.8282 28.1745 24.5354C28.1499 24.2765 28.1037 24.0206 28.0544 23.7525C27.9927 23.3611 27.9064 22.9727 27.8078 22.5812L27.7739 22.4333C27.6999 22.1651 27.6383 21.9094 27.552 21.6412C27.3084 20.7997 27.028 19.9799 26.7321 19.2124C26.6242 18.9073 26.5009 18.6145 26.3776 18.3217C26.1958 17.8809 26.0108 17.4802 25.8413 17.1011C25.755 16.9285 25.6811 16.7713 25.6071 16.611C25.5239 16.4291 25.4376 16.2473 25.3512 16.0747C25.2896 15.9422 25.2187 15.8189 25.1694 15.6956L24.6423 14.7216C24.5684 14.5891 24.6917 14.4319 24.8365 14.4719L28.1345 15.3658H28.1438C28.1499 15.3658 28.153 15.3689 28.1561 15.3689L28.5906 15.4891L29.0684 15.6247L29.2441 15.674V13.7137C29.2441 12.7675 30.0023 12 30.9393 12C31.4078 12 31.8332 12.1911 32.1383 12.5024C32.4434 12.8137 32.6345 13.2391 32.6345 13.7137V16.6234L32.9859 16.7219C33.0137 16.7312 33.0414 16.7435 33.066 16.762C33.1524 16.8268 33.2756 16.9223 33.4328 17.0395C33.5561 17.138 33.6887 17.2583 33.8489 17.3816C34.1664 17.6374 34.5455 17.9672 34.9616 18.3463C35.0726 18.4418 35.1804 18.5405 35.2791 18.6391C35.8154 19.1384 36.4164 19.724 36.9897 20.3713C37.15 20.5532 37.3072 20.7381 37.4675 20.9323C37.6277 21.1295 37.7973 21.3237 37.9452 21.5179C38.1394 21.7768 38.349 22.045 38.5308 22.3255C38.6171 22.458 38.7158 22.5936 38.799 22.7261C39.0332 23.0806 39.2397 23.4474 39.437 23.8142C39.5202 23.9837 39.6065 24.1686 39.6805 24.3505C39.8993 24.8405 40.0719 25.3399 40.1829 25.8392C40.2168 25.9471 40.2414 26.0642 40.2538 26.169V26.1937C40.2908 26.3416 40.3031 26.4988 40.3154 26.659C40.3647 27.1707 40.3401 27.6823 40.2291 28.1971C40.1829 28.4159 40.1213 28.6224 40.0473 28.8413C39.9733 29.0509 39.8993 29.2697 39.8038 29.4762C39.6189 29.9046 39.4 30.3331 39.1411 30.7337C39.0579 30.8817 38.9592 31.0389 38.8606 31.1869C38.7527 31.344 38.6418 31.492 38.5431 31.6369C38.4075 31.8218 38.2627 32.0159 38.1147 32.1886C37.9822 32.3704 37.8466 32.5523 37.6986 32.7125C37.4921 32.956 37.2948 33.1872 37.0883 33.4091C36.9651 33.554 36.8325 33.7019 36.6969 33.8345C36.5644 33.9824 36.4287 34.1149 36.3054 34.2382C36.099 34.4447 35.9264 34.605 35.7815 34.7375L35.4425 35.0489C35.3931 35.092 35.3284 35.1167 35.2606 35.1167H32.6345V38.4856H35.9387C36.6784 38.4856 37.3812 38.2235 37.9483 37.7427C38.1425 37.5732 38.9901 36.8396 39.9918 35.7331C40.0257 35.6961 40.0689 35.6684 40.1182 35.6561L49.2446 33.0177C49.4142 32.9684 49.5867 33.0978 49.5867 33.2766Z" fill="white"/>
</svg>
