<svg width="60" height="60" viewBox="0 0 60 60" fill="none" xmlns="http://www.w3.org/2000/svg">
<rect width="60" height="60" fill="white"/>
<g clip-path="url(#clip0_2244_38736)">
<path d="M34.8402 30.7598H26.2002V48.0398H34.8402V30.7598Z" fill="#00B981"/>
<path fill-rule="evenodd" clip-rule="evenodd" d="M30.5195 30.7598H34.8395V35.0798L30.5195 30.7598Z" fill="#00FBAE"/>
<path d="M15.64 30.7598H7V48.0398H15.64V30.7598Z" fill="#2D3091"/>
<path fill-rule="evenodd" clip-rule="evenodd" d="M24.2796 39.3998C24.2796 34.628 20.4114 30.7598 15.6396 30.7598C15.6396 32.9815 15.6396 32.9815 15.6396 35.0798C15.6396 37.3015 15.6396 37.9186 15.6396 39.3998C19.9587 39.3912 22.6751 39.3998 24.2796 39.3998Z" fill="#E81E25"/>
<path fill-rule="evenodd" clip-rule="evenodd" d="M24.2796 39.4C24.2796 44.1718 20.4114 48.04 15.6396 48.04C15.6396 45.8183 15.6396 45.8183 15.6396 43.72C15.6396 41.4983 15.6396 40.8812 15.6396 39.4C19.9587 39.4086 22.6751 39.4 24.2796 39.4Z" fill="#FCB040"/>
<path d="M15.64 30.7598H7V48.0398H15.64V30.7598Z" fill="#00B981"/>
<path fill-rule="evenodd" clip-rule="evenodd" d="M24.2796 39.3998C24.2796 34.628 20.4114 30.7598 15.6396 30.7598C15.6396 32.9815 15.6396 32.9815 15.6396 35.0798C15.6396 37.3015 15.6396 37.9186 15.6396 39.3998C19.9596 39.3998 22.6751 39.3998 24.2796 39.3998Z" fill="#00DD9A"/>
<path fill-rule="evenodd" clip-rule="evenodd" d="M24.2796 39.4C24.2796 44.1718 20.4114 48.04 15.6396 48.04C15.6396 45.8183 15.6396 45.8183 15.6396 43.72C15.6396 41.4983 15.6396 40.8812 15.6396 39.4C19.9596 39.4 22.6751 39.4 24.2796 39.4Z" fill="#00FBAE"/>
<path d="M46.3597 30.7598H37.7197V48.0398H46.3597V30.7598Z" fill="#00B981"/>
<path fill-rule="evenodd" clip-rule="evenodd" d="M55.0004 39.3998C55.0004 34.628 51.1321 30.7598 46.3604 30.7598C46.3604 32.9815 46.3604 32.9815 46.3604 35.0798C46.3604 37.3015 46.3604 37.9186 46.3604 39.3998C50.6804 39.3998 53.3958 39.3998 55.0004 39.3998Z" fill="#00FBAE"/>
<path fill-rule="evenodd" clip-rule="evenodd" d="M55.0004 39.4C55.0004 44.1718 51.1321 48.04 46.3604 48.04C46.3604 45.8183 46.3604 45.8183 46.3604 43.72C46.3604 41.4983 46.3604 40.8812 46.3604 39.4C50.6804 39.4 53.3958 39.4 55.0004 39.4Z" fill="#00DD9A"/>
<path d="M11.0705 27.117C15.3017 27.117 16.6203 25.5229 16.6203 22.807C16.6203 20.3274 16.207 19.245 12.8024 18.3594C11.1099 17.9264 10.8147 17.7886 10.8147 17.1589C10.8147 16.5094 11.3067 16.2142 12.5662 16.2142C13.6486 16.2142 15.3608 16.4701 15.9315 16.6865V13.5574C15.164 13.3016 14.1013 13.0654 12.3891 13.0654C9.12221 13.0654 7.03613 14.0888 7.03613 17.3163C7.03613 19.7369 7.74461 20.6816 10.736 21.3704C12.4481 21.7837 12.704 22.1182 12.704 22.6889C12.704 23.5352 12.4875 23.8107 10.8541 23.8107C9.63389 23.8107 8.03981 23.5549 7.13453 23.299V26.6643C8.09885 26.9005 9.55517 27.117 11.0705 27.117ZM27.9757 26.9202V23.5549H22.8589V21.6262H27.4443V18.379H22.8589V16.6472H27.8576V13.2622H18.9425V26.9202H27.9757ZM39.1342 26.9202V23.5549H34.0174V21.6262H38.6029V18.379H34.0174V16.6472H39.0161V13.2622H30.1011V26.9202H39.1342ZM45.176 26.9202V21.2523H45.7073L49.0529 26.9202H53.7171L48.9939 19.5795L53.5203 13.2622H49.0136L45.7073 18.1822H45.176V13.2622H41.2597V26.9202H45.176Z" fill="#1C1C23"/>
</g>
<defs>
<clipPath id="clip0_2244_38736">
<rect width="48" height="35.04" fill="white" transform="translate(7 13)"/>
</clipPath>
</defs>
</svg>
