<svg width="60" height="60" viewBox="0 0 60 60" fill="none" xmlns="http://www.w3.org/2000/svg">
<g clip-path="url(#clip0_1032_5728)">
<path d="M60 0H0V60H60V0Z" fill="white"/>
<g clip-path="url(#clip1_1032_5728)">
<mask id="mask0_1032_5728" style="mask-type:alpha" maskUnits="userSpaceOnUse" x="6" y="6" width="41" height="48">
<path d="M30 6C36.3606 6 42.1432 8.4743 46.4378 12.5129L46.436 12.5146C46.4664 12.5386 46.4938 12.5634 46.518 12.5889V12.5886C46.6068 12.6822 46.6552 12.7855 46.6634 12.8987C46.6736 13.043 46.6126 13.1772 46.48 13.3013L42.0362 17.7419C41.9408 17.822 41.8298 17.862 41.703 17.862C41.5762 17.862 41.4682 17.822 41.3786 17.7419L41.3994 17.7584C38.4122 14.9754 34.4048 13.2727 30 13.2727C20.7618 13.2727 13.2727 20.7618 13.2727 30C13.2727 39.2382 20.7618 46.7272 30 46.7272C34.4518 46.7272 38.4972 44.9882 41.4944 42.1524L41.499 42.1574C41.6034 42.0348 41.704 41.9736 41.8004 41.9736C41.897 41.9736 41.9968 42.013 42.0996 42.0916L46.7068 46.7034C46.8046 46.7972 46.85 46.8906 46.843 46.9834C46.8376 47.0552 46.8004 47.1296 46.7316 47.2062C42.4084 51.4108 36.5066 54 30 54C16.7452 54 6 43.2548 6 30C6 16.7452 16.7452 6 30 6Z" fill="white"/>
</mask>
<g mask="url(#mask0_1032_5728)">
<path d="M30 6C36.3606 6 42.1432 8.4743 46.4378 12.5129L46.436 12.5146C46.4664 12.5386 46.4938 12.5634 46.518 12.5889V12.5886C46.6068 12.6822 46.6552 12.7855 46.6634 12.8987C46.6736 13.043 46.6126 13.1772 46.48 13.3013L42.0362 17.7419C41.9408 17.822 41.8298 17.862 41.703 17.862C41.5762 17.862 41.4682 17.822 41.3786 17.7419L41.3994 17.7584C38.4122 14.9754 34.4048 13.2727 30 13.2727C20.7618 13.2727 13.2727 20.7618 13.2727 30C13.2727 39.2382 20.7618 46.7272 30 46.7272C34.4518 46.7272 38.4972 44.9882 41.4944 42.1524L41.499 42.1574C41.6034 42.0348 41.704 41.9736 41.8004 41.9736C41.897 41.9736 41.9968 42.013 42.0996 42.0916L46.7068 46.7034C46.8046 46.7972 46.85 46.8906 46.843 46.9834C46.8376 47.0552 46.8004 47.1296 46.7316 47.2062C42.4084 51.4108 36.5066 54 30 54C16.7452 54 6 43.2548 6 30C6 16.7452 16.7452 6 30 6Z" fill="#006DFF"/>
</g>
<mask id="mask1_1032_5728" style="mask-type:alpha" maskUnits="userSpaceOnUse" x="12" y="41" width="35" height="14">
<path d="M29.9941 46.7302C34.4459 46.7302 38.4913 44.9912 41.4885 42.1554L41.4931 42.1604C41.5975 42.0378 41.6981 41.9766 41.7945 41.9766C41.8791 41.9766 41.9659 42.0066 42.0553 42.0668L42.0937 42.0944L46.7009 46.7062C46.7987 46.8002 46.8441 46.8936 46.8371 46.9864C46.8317 47.0582 46.7945 47.1326 46.7257 47.2092C42.4025 51.4138 36.5007 54.003 29.9941 54.003C23.2667 54.003 17.1858 51.235 12.8281 46.7758L17.9712 41.6328C21.0124 44.776 25.275 46.7302 29.9941 46.7302Z" fill="white"/>
</mask>
<g mask="url(#mask1_1032_5728)">
<path d="M29.9941 46.7302C34.4459 46.7302 38.4913 44.9912 41.4885 42.1554L41.4931 42.1604C41.5975 42.0378 41.6981 41.9766 41.7945 41.9766C41.8791 41.9766 41.9659 42.0066 42.0553 42.0668L42.0937 42.0944L46.7009 46.7062C46.7987 46.8002 46.8441 46.8936 46.8371 46.9864C46.8317 47.0582 46.7945 47.1326 46.7257 47.2092C42.4025 51.4138 36.5007 54.003 29.9941 54.003C23.2667 54.003 17.1858 51.235 12.8281 46.7758L17.9712 41.6328C21.0124 44.776 25.275 46.7302 29.9941 46.7302Z" fill="#0FDE96"/>
</g>
</g>
<path fill-rule="evenodd" clip-rule="evenodd" d="M39.6907 20.3047L36.8509 23.1451C38.6055 24.8999 39.6907 27.3239 39.6907 30.0017C39.6907 35.3571 35.3493 39.6985 29.9939 39.6985C24.6384 39.6985 20.2969 35.3571 20.2969 30.0017C20.2969 24.6997 24.552 20.3916 29.8335 20.306L29.9939 20.3047H39.6907ZM29.9939 25.638C27.5839 25.638 25.6302 27.5917 25.6302 30.0017C25.6302 32.4115 27.5839 34.3653 29.9939 34.3653C32.4037 34.3653 34.3575 32.4115 34.3575 30.0017C34.3575 27.5917 32.4037 25.638 29.9939 25.638Z" fill="#0FDE96"/>
</g>
<defs>
<clipPath id="clip0_1032_5728">
<rect width="60" height="60" fill="white"/>
</clipPath>
<clipPath id="clip1_1032_5728">
<rect width="48" height="48" fill="white" transform="translate(6 6)"/>
</clipPath>
</defs>
</svg>
