<svg width="60" height="60" viewBox="0 0 60 60" fill="none" xmlns="http://www.w3.org/2000/svg">
<rect width="60" height="60" fill="#89DA91"/>
<g clip-path="url(#clip0_1032_5754)">
<path d="M12.9998 25.9409C13.048 26.1335 13.0721 26.3743 13.0721 26.6633C13.0721 26.9402 13.048 27.181 12.9998 27.3857C13.048 27.5783 13.0721 27.8191 13.0721 28.1081C13.0721 28.385 13.048 28.6258 12.9998 28.8305C13.048 29.0231 13.0721 29.2639 13.0721 29.5529C13.0721 29.8298 13.048 30.0706 12.9998 30.2753H12.458C12.5062 30.4679 12.5303 30.7087 12.5303 30.9977C12.5303 31.2746 12.5062 31.5154 12.458 31.72C12.5062 31.9127 12.5303 32.1535 12.5303 32.4424C12.5303 32.7194 12.5062 32.9602 12.458 33.1648H12.0968C12.145 33.3575 12.1691 33.5983 12.1691 33.8872C12.1691 34.1642 12.145 34.405 12.0968 34.6096H11.0132C10.9651 34.405 10.941 34.1642 10.941 33.8872C10.941 33.5983 10.9651 33.3575 11.0132 33.1648H10.6521C10.6039 32.9602 10.5798 32.7194 10.5798 32.4424C10.5798 32.1535 10.6039 31.9127 10.6521 31.72H9.56847C9.61662 31.9127 9.6407 32.1535 9.6407 32.4424C9.6407 32.7194 9.61662 32.9602 9.56847 33.1648H9.20726C9.25543 33.3575 9.2795 33.5983 9.2795 33.8872C9.2795 34.1642 9.25543 34.405 9.20726 34.6096H8.12367C8.07551 34.405 8.05143 34.1642 8.05143 33.8872C8.05143 33.5983 8.07551 33.3575 8.12367 33.1648H7.76247C7.71431 32.9602 7.69023 32.7194 7.69023 32.4424C7.69023 32.1535 7.71431 31.9127 7.76247 31.72C7.71431 31.5154 7.69023 31.2746 7.69023 30.9977C7.69023 30.7087 7.71431 30.4679 7.76247 30.2753H7.22068C7.17252 30.0706 7.14844 29.8298 7.14844 29.5529C7.14844 29.2639 7.17252 29.0231 7.22068 28.8305C7.17252 28.6258 7.14844 28.385 7.14844 28.1081C7.14844 27.8191 7.17252 27.5783 7.22068 27.3857C7.17252 27.181 7.14844 26.9402 7.14844 26.6633C7.14844 26.3743 7.17252 26.1335 7.22068 25.9409C7.17252 25.7362 7.14844 25.4954 7.14844 25.2185C7.14844 24.9295 7.17252 24.6887 7.22068 24.4961H8.66547C8.71363 24.6887 8.73771 24.9295 8.73771 25.2185C8.73771 25.4954 8.71363 25.7362 8.66547 25.9409C8.71363 26.1335 8.73771 26.3743 8.73771 26.6633C8.73771 26.9402 8.71363 27.181 8.66547 27.3857C8.71363 27.5783 8.73771 27.8191 8.73771 28.1081C8.73771 28.385 8.71363 28.6258 8.66547 28.8305C8.71363 29.0231 8.73771 29.2639 8.73771 29.5529C8.73771 29.8298 8.71363 30.0706 8.66547 30.2753C8.71363 30.4679 8.73771 30.7087 8.73771 30.9977C8.73771 31.2746 8.71363 31.5154 8.66547 31.72H9.20726C9.1591 31.5154 9.13503 31.2746 9.13503 30.9977C9.13503 30.7087 9.1591 30.4679 9.20726 30.2753H9.56847C9.5203 30.0706 9.49622 29.8298 9.49622 29.5529C9.49622 29.2639 9.5203 29.0231 9.56847 28.8305C9.5203 28.6258 9.49622 28.385 9.49622 28.1081C9.49622 27.8191 9.5203 27.5783 9.56847 27.3857C9.5203 27.181 9.49622 26.9402 9.49622 26.6633C9.49622 26.3743 9.5203 26.1335 9.56847 25.9409C9.5203 25.7362 9.49622 25.4954 9.49622 25.2185C9.49622 24.9295 9.5203 24.6887 9.56847 24.4961H10.6521C10.7002 24.6887 10.7243 24.9295 10.7243 25.2185C10.7243 25.4954 10.7002 25.7362 10.6521 25.9409C10.7002 26.1335 10.7243 26.3743 10.7243 26.6633C10.7243 26.9402 10.7002 27.181 10.6521 27.3857C10.7002 27.5783 10.7243 27.8191 10.7243 28.1081C10.7243 28.385 10.7002 28.6258 10.6521 28.8305C10.7002 29.0231 10.7243 29.2639 10.7243 29.5529C10.7243 29.8298 10.7002 30.0706 10.6521 30.2753H11.0132C11.0614 30.4679 11.0855 30.7087 11.0855 30.9977C11.0855 31.2746 11.0614 31.5154 11.0132 31.72H11.555C11.5069 31.5154 11.4828 31.2746 11.4828 30.9977C11.4828 30.7087 11.5069 30.4679 11.555 30.2753C11.5069 30.0706 11.4828 29.8298 11.4828 29.5529C11.4828 29.2639 11.5069 29.0231 11.555 28.8305C11.5069 28.6258 11.4828 28.385 11.4828 28.1081C11.4828 27.8191 11.5069 27.5783 11.555 27.3857C11.5069 27.181 11.4828 26.9402 11.4828 26.6633C11.4828 26.3743 11.5069 26.1335 11.555 25.9409C11.5069 25.7362 11.4828 25.4954 11.4828 25.2185C11.4828 24.9295 11.5069 24.6887 11.555 24.4961H12.9998C13.048 24.6887 13.0721 24.9295 13.0721 25.2185C13.0721 25.4954 13.048 25.7362 12.9998 25.9409Z" fill="#121314"/>
<path d="M20.2908 29.5539C20.2908 29.8308 20.2667 30.0716 20.2186 30.2763C20.2667 30.4689 20.2908 30.7097 20.2908 30.9987C20.2908 31.2756 20.2667 31.5164 20.2186 31.7211H16.426C16.4742 31.9137 16.4983 32.1545 16.4983 32.4435C16.4983 32.7204 16.4742 32.9612 16.426 33.1659H19.4962C19.5444 33.3585 19.5684 33.5993 19.5684 33.8883C19.5684 34.1652 19.5444 34.406 19.4962 34.6107H15.8842C15.8361 34.406 15.812 34.1652 15.812 33.8883C15.812 33.5993 15.8361 33.3585 15.8842 33.1659H14.9812C14.9331 32.9612 14.909 32.7204 14.909 32.4435C14.909 32.1545 14.9331 31.9137 14.9812 31.7211H14.4394C14.3913 31.5164 14.3672 31.2756 14.3672 30.9987C14.3672 30.7097 14.3913 30.4689 14.4394 30.2763H14.9812C14.9331 30.0716 14.909 29.8308 14.909 29.5539C14.909 29.2649 14.9331 29.0241 14.9812 28.8315H15.8842C15.8361 28.6268 15.812 28.386 15.812 28.1091C15.812 27.8201 15.8361 27.5793 15.8842 27.3867H19.4962C19.5444 27.5793 19.5684 27.8201 19.5684 28.1091C19.5684 28.386 19.5444 28.6268 19.4962 28.8315H20.2186C20.2667 29.0241 20.2908 29.2649 20.2908 29.5539ZM18.7738 30.2763C18.7256 30.0716 18.7016 29.8308 18.7016 29.5539C18.7016 29.2649 18.7256 29.0241 18.7738 28.8315H16.426C16.4742 29.0241 16.4983 29.2649 16.4983 29.5539C16.4983 29.8308 16.4742 30.0716 16.426 30.2763H18.7738Z" fill="#121314"/>
<path d="M23.1186 31.72C23.1668 31.9127 23.1908 32.1535 23.1908 32.4424C23.1908 32.7194 23.1668 32.9602 23.1186 33.1648H22.3962C22.4443 33.3575 22.4684 33.5983 22.4684 33.8872C22.4684 34.1642 22.4443 34.405 22.3962 34.6096H21.6738C21.6256 34.405 21.6016 34.1642 21.6016 33.8872C21.6016 33.5983 21.6256 33.3575 21.6738 33.1648C21.6256 32.9602 21.6016 32.7194 21.6016 32.4424C21.6016 32.1535 21.6256 31.9127 21.6738 31.72C21.6256 31.5154 21.6016 31.2746 21.6016 30.9977C21.6016 30.7087 21.6256 30.4679 21.6738 30.2753C21.6256 30.0706 21.6016 29.8298 21.6016 29.5529C21.6016 29.2639 21.6256 29.0231 21.6738 28.8305C21.6256 28.6258 21.6016 28.385 21.6016 28.1081C21.6016 27.8191 21.6256 27.5783 21.6738 27.3857C21.6256 27.181 21.6016 26.9402 21.6016 26.6633C21.6016 26.3743 21.6256 26.1335 21.6738 25.9409C21.6256 25.7362 21.6016 25.4954 21.6016 25.2185C21.6016 24.9295 21.6256 24.6887 21.6738 24.4961H23.1186C23.1668 24.6887 23.1908 24.9295 23.1908 25.2185C23.1908 25.4954 23.1668 25.7362 23.1186 25.9409C23.1668 26.1335 23.1908 26.3743 23.1908 26.6633C23.1908 26.9402 23.1668 27.181 23.1186 27.3857C23.1668 27.5783 23.1908 27.8191 23.1908 28.1081C23.1908 28.385 23.1668 28.6258 23.1186 28.8305H23.841C23.8891 29.0231 23.9132 29.2639 23.9132 29.5529C23.9132 29.8298 23.8891 30.0706 23.841 30.2753H23.1186C23.1668 30.4679 23.1908 30.7087 23.1908 30.9977C23.1908 31.2746 23.1668 31.5154 23.1186 31.72ZM27.5252 30.9977C27.5252 31.2746 27.5012 31.5154 27.4529 31.72H26.7306C26.7787 31.9127 26.8029 32.1535 26.8029 32.4424C26.8029 32.7194 26.7787 32.9602 26.7306 33.1648H25.2858C25.2376 32.9602 25.2135 32.7194 25.2135 32.4424C25.2135 32.1535 25.2376 31.9127 25.2858 31.72H26.0082C25.96 31.5154 25.9359 31.2746 25.9359 30.9977C25.9359 30.7087 25.96 30.4679 26.0082 30.2753H25.2858C25.2376 30.0706 25.2135 29.8298 25.2135 29.5529C25.2135 29.2639 25.2376 29.0231 25.2858 28.8305H23.841C23.7928 28.6258 23.7687 28.385 23.7687 28.1081C23.7687 27.8191 23.7928 27.5783 23.841 27.3857H26.0082C26.0563 27.5783 26.0804 27.8191 26.0804 28.1081C26.0804 28.385 26.0563 28.6258 26.0082 28.8305H26.7306C26.7787 29.0231 26.8029 29.2639 26.8029 29.5529C26.8029 29.8298 26.7787 30.0706 26.7306 30.2753H27.4529C27.5012 30.4679 27.5252 30.7087 27.5252 30.9977ZM23.0463 33.8872C23.0463 33.5983 23.0704 33.3575 23.1186 33.1648H25.2858C25.3339 33.3575 25.358 33.5983 25.358 33.8872C25.358 34.1642 25.3339 34.405 25.2858 34.6096H23.1186C23.0704 34.405 23.0463 34.1642 23.0463 33.8872Z" fill="#121314"/>
<path d="M34.2168 28.1081C34.2168 28.385 34.1929 28.6258 34.1446 28.8305H33.4223C33.4704 29.0231 33.4946 29.2639 33.4946 29.5529C33.4946 29.8298 33.4704 30.0706 33.4223 30.2753H34.1446C34.1929 30.4679 34.2168 30.7087 34.2168 30.9977C34.2168 31.2746 34.1929 31.5154 34.1446 31.72C34.1929 31.9127 34.2168 32.1535 34.2168 32.4424C34.2168 32.7194 34.1929 32.9602 34.1446 33.1648H33.4223C33.4704 33.3575 33.4946 33.5983 33.4946 33.8872C33.4946 34.1642 33.4704 34.405 33.4223 34.6096H29.8104C29.7621 34.405 29.7381 34.1642 29.7381 33.8872C29.7381 33.5983 29.7621 33.3575 29.8104 33.1648H29.0879C29.0398 32.9602 29.0156 32.7194 29.0156 32.4424C29.0156 32.1535 29.0398 31.9127 29.0879 31.72H30.5326C30.5807 31.9127 30.6049 32.1535 30.6049 32.4424C30.6049 32.7194 30.5807 32.9602 30.5326 33.1648H32.6998C32.6517 32.9602 32.6276 32.7194 32.6276 32.4424C32.6276 32.1535 32.6517 31.9127 32.6998 31.72C32.6517 31.5154 32.6276 31.2746 32.6276 30.9977C32.6276 30.7087 32.6517 30.4679 32.6998 30.2753H30.894C30.8457 30.0706 30.8217 29.8298 30.8217 29.5529C30.8217 29.2639 30.8457 29.0231 30.894 28.8305H32.6998C32.6517 28.6258 32.6276 28.385 32.6276 28.1081C32.6276 27.8191 32.6517 27.5783 32.6998 27.3857C32.6517 27.181 32.6276 26.9402 32.6276 26.6633C32.6276 26.3743 32.6517 26.1335 32.6998 25.9409H30.5326C30.5807 26.1335 30.6049 26.3743 30.6049 26.6633C30.6049 26.9402 30.5807 27.181 30.5326 27.3857H29.0879C29.0398 27.181 29.0156 26.9402 29.0156 26.6633C29.0156 26.3743 29.0398 26.1335 29.0879 25.9409H29.8104C29.7621 25.7362 29.7381 25.4954 29.7381 25.2185C29.7381 24.9295 29.7621 24.6887 29.8104 24.4961H33.4223C33.4704 24.6887 33.4946 24.9295 33.4946 25.2185C33.4946 25.4954 33.4704 25.7362 33.4223 25.9409H34.1446C34.1929 26.1335 34.2168 26.3743 34.2168 26.6633C34.2168 26.9402 34.1929 27.181 34.1446 27.3857C34.1929 27.5783 34.2168 27.8191 34.2168 28.1081Z" fill="#121314"/>
<path d="M41.7342 28.8305C41.7823 29.0231 41.8065 29.2639 41.8065 29.5529C41.8065 29.8298 41.7823 30.0706 41.7342 30.2753C41.7823 30.4679 41.8065 30.7087 41.8065 30.9977C41.8065 31.2746 41.7823 31.5154 41.7342 31.72H41.0118C41.0601 31.9127 41.084 32.1535 41.084 32.4424C41.084 32.7194 41.0601 32.9602 41.0118 33.1648H40.2895C40.3376 33.3575 40.3617 33.5983 40.3617 33.8872C40.3617 34.1642 40.3376 34.405 40.2895 34.6096H35.9551C35.907 34.405 35.8828 34.1642 35.8828 33.8872C35.8828 33.5983 35.907 33.3575 35.9551 33.1648C35.907 32.9602 35.8828 32.7194 35.8828 32.4424C35.8828 32.1535 35.907 31.9127 35.9551 31.72C35.907 31.5154 35.8828 31.2746 35.8828 30.9977C35.8828 30.7087 35.907 30.4679 35.9551 30.2753C35.907 30.0706 35.8828 29.8298 35.8828 29.5529C35.8828 29.2639 35.907 29.0231 35.9551 28.8305C35.907 28.6258 35.8828 28.385 35.8828 28.1081C35.8828 27.8191 35.907 27.5783 35.9551 27.3857C35.907 27.181 35.8828 26.9402 35.8828 26.6633C35.8828 26.3743 35.907 26.1335 35.9551 25.9409C35.907 25.7362 35.8828 25.4954 35.8828 25.2185C35.8828 24.9295 35.907 24.6887 35.9551 24.4961H40.2895C40.3376 24.6887 40.3617 24.9295 40.3617 25.2185C40.3617 25.4954 40.3376 25.7362 40.2895 25.9409H41.0118C41.0601 26.1335 41.084 26.3743 41.084 26.6633C41.084 26.9402 41.0601 27.181 41.0118 27.3857H41.7342C41.7823 27.5783 41.8065 27.8191 41.8065 28.1081C41.8065 28.385 41.7823 28.6258 41.7342 28.8305ZM40.2895 31.72C40.2414 31.5154 40.2172 31.2746 40.2172 30.9977C40.2172 30.7087 40.2414 30.4679 40.2895 30.2753C40.2414 30.0706 40.2172 29.8298 40.2172 29.5529C40.2172 29.2639 40.2414 29.0231 40.2895 28.8305C40.2414 28.6258 40.2172 28.385 40.2172 28.1081C40.2172 27.8191 40.2414 27.5783 40.2895 27.3857H39.567C39.5189 27.181 39.4948 26.9402 39.4948 26.6633C39.4948 26.3743 39.5189 26.1335 39.567 25.9409H37.3998C37.4481 26.1335 37.4721 26.3743 37.4721 26.6633C37.4721 26.9402 37.4481 27.181 37.3998 27.3857C37.4481 27.5783 37.4721 27.8191 37.4721 28.1081C37.4721 28.385 37.4481 28.6258 37.3998 28.8305C37.4481 29.0231 37.4721 29.2639 37.4721 29.5529C37.4721 29.8298 37.4481 30.0706 37.3998 30.2753C37.4481 30.4679 37.4721 30.7087 37.4721 30.9977C37.4721 31.2746 37.4481 31.5154 37.3998 31.72C37.4481 31.9127 37.4721 32.1535 37.4721 32.4424C37.4721 32.7194 37.4481 32.9602 37.3998 33.1648H39.567C39.5189 32.9602 39.4948 32.7194 39.4948 32.4424C39.4948 32.1535 39.5189 31.9127 39.567 31.72H40.2895Z" fill="#121314"/>
<path d="M46.3953 33.1648C46.4434 33.3575 46.4674 33.5983 46.4674 33.8872C46.4674 34.1642 46.4434 34.405 46.3953 34.6096H42.7832C42.7351 34.405 42.7109 34.1642 42.7109 33.8872C42.7109 33.5983 42.7351 33.3575 42.7832 33.1648H43.8668C43.8187 32.9602 43.7945 32.7194 43.7945 32.4424C43.7945 32.1535 43.8187 31.9127 43.8668 31.72C43.8187 31.5154 43.7945 31.2746 43.7945 30.9977C43.7945 30.7087 43.8187 30.4679 43.8668 30.2753C43.8187 30.0706 43.7945 29.8298 43.7945 29.5529C43.7945 29.2639 43.8187 29.0231 43.8668 28.8305C43.8187 28.6258 43.7945 28.385 43.7945 28.1081C43.7945 27.8191 43.8187 27.5783 43.8668 27.3857C43.8187 27.181 43.7945 26.9402 43.7945 26.6633C43.7945 26.3743 43.8187 26.1335 43.8668 25.9409H42.7832C42.7351 25.7362 42.7109 25.4954 42.7109 25.2185C42.7109 24.9295 42.7351 24.6887 42.7832 24.4961H46.3953C46.4434 24.6887 46.4674 24.9295 46.4674 25.2185C46.4674 25.4954 46.4434 25.7362 46.3953 25.9409H45.3117C45.3598 26.1335 45.3838 26.3743 45.3838 26.6633C45.3838 26.9402 45.3598 27.181 45.3117 27.3857C45.3598 27.5783 45.3838 27.8191 45.3838 28.1081C45.3838 28.385 45.3598 28.6258 45.3117 28.8305C45.3598 29.0231 45.3838 29.2639 45.3838 29.5529C45.3838 29.8298 45.3598 30.0706 45.3117 30.2753C45.3598 30.4679 45.3838 30.7087 45.3838 30.9977C45.3838 31.2746 45.3598 31.5154 45.3117 31.72C45.3598 31.9127 45.3838 32.1535 45.3838 32.4424C45.3838 32.7194 45.3598 32.9602 45.3117 33.1648H46.3953Z" fill="#121314"/>
<path d="M53.7811 28.8305C53.8292 29.0231 53.8534 29.2639 53.8534 29.5529C53.8534 29.8298 53.8292 30.0706 53.7811 30.2753C53.8292 30.4679 53.8534 30.7087 53.8534 30.9977C53.8534 31.2746 53.8292 31.5154 53.7811 31.72H53.0586C53.1067 31.9127 53.1309 32.1535 53.1309 32.4424C53.1309 32.7194 53.1067 32.9602 53.0586 33.1648H52.3364C52.3845 33.3575 52.4084 33.5983 52.4084 33.8872C52.4084 34.1642 52.3845 34.405 52.3364 34.6096H48.002C47.9537 34.405 47.9297 34.1642 47.9297 33.8872C47.9297 33.5983 47.9537 33.3575 48.002 33.1648C47.9537 32.9602 47.9297 32.7194 47.9297 32.4424C47.9297 32.1535 47.9537 31.9127 48.002 31.72C47.9537 31.5154 47.9297 31.2746 47.9297 30.9977C47.9297 30.7087 47.9537 30.4679 48.002 30.2753C47.9537 30.0706 47.9297 29.8298 47.9297 29.5529C47.9297 29.2639 47.9537 29.0231 48.002 28.8305C47.9537 28.6258 47.9297 28.385 47.9297 28.1081C47.9297 27.8191 47.9537 27.5783 48.002 27.3857C47.9537 27.181 47.9297 26.9402 47.9297 26.6633C47.9297 26.3743 47.9537 26.1335 48.002 25.9409C47.9537 25.7362 47.9297 25.4954 47.9297 25.2185C47.9297 24.9295 47.9537 24.6887 48.002 24.4961H52.3364C52.3845 24.6887 52.4084 24.9295 52.4084 25.2185C52.4084 25.4954 52.3845 25.7362 52.3364 25.9409H53.0586C53.1067 26.1335 53.1309 26.3743 53.1309 26.6633C53.1309 26.9402 53.1067 27.181 53.0586 27.3857H53.7811C53.8292 27.5783 53.8534 27.8191 53.8534 28.1081C53.8534 28.385 53.8292 28.6258 53.7811 28.8305ZM52.3364 31.72C52.2881 31.5154 52.2641 31.2746 52.2641 30.9977C52.2641 30.7087 52.2881 30.4679 52.3364 30.2753C52.2881 30.0706 52.2641 29.8298 52.2641 29.5529C52.2641 29.2639 52.2881 29.0231 52.3364 28.8305C52.2881 28.6258 52.2641 28.385 52.2641 28.1081C52.2641 27.8191 52.2881 27.5783 52.3364 27.3857H51.6139C51.5658 27.181 51.5416 26.9402 51.5416 26.6633C51.5416 26.3743 51.5658 26.1335 51.6139 25.9409H49.4467C49.4948 26.1335 49.519 26.3743 49.519 26.6633C49.519 26.9402 49.4948 27.181 49.4467 27.3857C49.4948 27.5783 49.519 27.8191 49.519 28.1081C49.519 28.385 49.4948 28.6258 49.4467 28.8305C49.4948 29.0231 49.519 29.2639 49.519 29.5529C49.519 29.8298 49.4948 30.0706 49.4467 30.2753C49.4948 30.4679 49.519 30.7087 49.519 30.9977C49.519 31.2746 49.4948 31.5154 49.4467 31.72C49.4948 31.9127 49.519 32.1535 49.519 32.4424C49.519 32.7194 49.4948 32.9602 49.4467 33.1648H51.6139C51.5658 32.9602 51.5416 32.7194 51.5416 32.4424C51.5416 32.1535 51.5658 31.9127 51.6139 31.72H52.3364Z" fill="#121314"/>
</g>
<defs>
<clipPath id="clip0_1032_5754">
<rect width="47" height="10.2174" fill="white" transform="translate(7 24.3906)"/>
</clipPath>
</defs>
</svg>
