<?xml version="1.0" encoding="UTF-8"?>
<svg width="351px" height="217px" viewBox="0 0 351 217" version="1.1" xmlns="http://www.w3.org/2000/svg" xmlns:xlink="http://www.w3.org/1999/xlink">
    <title>DAS 小卡片/头像在左边备份</title>
    <defs>
        <rect id="path-1" x="5.68434189e-14" y="0" width="351" height="217"></rect>
        <radialGradient cx="57.1520577%" cy="15.7411014%" fx="57.1520577%" fy="15.7411014%" r="78.5835249%" id="radialGradient-3">
            <stop stop-color="#38C793" offset="0.0998757102%"></stop>
            <stop stop-color="#29C382" offset="100%"></stop>
        </radialGradient>
        <linearGradient x1="27.5798464%" y1="47.5467972%" x2="31.2741066%" y2="57.0072296%" id="linearGradient-4">
            <stop stop-color="#3CC998" offset="0%"></stop>
            <stop stop-color="#2EC486" offset="100%"></stop>
        </linearGradient>
        <radialGradient cx="57.1520577%" cy="15.7411014%" fx="57.1520577%" fy="15.7411014%" r="78.922247%" gradientTransform="translate(0.571521,0.157411),scale(1.000000,0.995708),rotate(90.000000),translate(-0.571521,-0.157411)" id="radialGradient-5">
            <stop stop-color="#38C793" offset="0.0998757102%"></stop>
            <stop stop-color="#29C382" offset="100%"></stop>
        </radialGradient>
        <linearGradient x1="27.5798464%" y1="47.527225%" x2="31.2741066%" y2="57.0631347%" id="linearGradient-6">
            <stop stop-color="#3CC998" offset="0%"></stop>
            <stop stop-color="#2EC486" offset="100%"></stop>
        </linearGradient>
    </defs>
    <g id="评审后调整" stroke="none" stroke-width="1" fill="none" fill-rule="evenodd">
        <g id="反向解析-未设置" transform="translate(-12.000000, -140.000000)">
            <g id="DAS-小卡片/头像在左边" transform="translate(12.000000, 140.000000)">
                <g transform="translate(0.000000, 0.000000)" id="DAS-小卡片/头像在左边备份">
                    <g id="DAS-小卡片/头像在左边" transform="translate(0.000000, 0.000000)">
                        <mask id="mask-2" fill="white">
                            <use xlink:href="#path-1"></use>
                        </mask>
                        <g id="Rectangle-Copy备份"></g>
                        <g id="第十行星" mask="url(#mask-2)">
                            <g transform="translate(-35.000000, -23.000000)" id="🪐第十行星">
                                <g transform="translate(73.000000, 55.500000) scale(-1, 1) translate(-73.000000, -55.500000) ">
                                    <g id="编组" transform="translate(15.000000, 0.000000)" fill="url(#radialGradient-3)">
                                        <path d="M111,55.4999399 C111,86.1517429 86.1518631,111 55.4999399,111 C24.8481369,111 0,86.1517429 0,55.4999399 C0,24.8481369 24.8481369,0 55.4999399,0 C86.1518631,0 111,24.8481369 111,55.4999399" id="Fill-1"></path>
                                    </g>
                                    <g id="编组" transform="translate(-0.000000, 10.000000)" fill="url(#linearGradient-4)">
                                        <path d="M126.863954,41.3123358 C114.855398,48.788471 98.0388197,56.9212484 78.8975443,64.1172975 C59.7547114,71.3117925 41.741099,76.2716953 27.7719529,78.5613962 C12.4153933,81.0777481 1.94677075,80.3656384 0.242456572,75.8499524 C-1.39620107,71.5104707 5.36761985,64.4836927 17.6150791,56.6464222 C18.0169259,58.5250193 18.517497,60.3671562 19.106369,62.1697248 C17.3881567,63.9358332 16.6503594,65.4220947 17.0661043,66.5264205 C17.4903557,67.6497534 19.0752181,68.2822483 21.6126993,68.4671793 C30.6628772,69.1256147 51.8149437,64.0706762 75.514915,55.1601608 C99.2165637,46.2514384 118.452969,36.1225544 124.818418,29.6695762 C126.600729,27.8618673 127.373152,26.3428515 126.948781,25.2195186 C126.531478,24.1151927 124.993342,23.484491 122.532061,23.2873668 C121.776891,21.5281918 120.931503,19.8173116 120.005003,18.158193 C134.389774,15.9842084 144.118922,16.8102412 145.75734,21.1497229 C147.463571,25.6654089 140.067507,33.0914561 126.863954,41.3123358" id="Fill-7"></path>
                                    </g>
                                </g>
                            </g>
                        </g>
                        <g id="第十行星备份" mask="url(#mask-2)">
                            <g transform="translate(162.000000, -16.000000)">
                                <g id="🪐第十行星" stroke-width="1" fill="none" transform="translate(194.500000, 116.500000) scale(-1, 1) translate(-194.500000, -116.500000) translate(41.000000, 0.000000)">
                                    <g id="编组" transform="translate(35.000000, 0.000000)" fill="url(#radialGradient-5)">
                                        <path d="M232,116.499874 C232,180.841046 180.065155,233 115.999874,233 C51.9348446,233 0,180.841046 0,116.499874 C0,52.1587017 51.9348446,0 115.999874,0 C180.065155,0 232,52.1587017 232,116.499874" id="Fill-1"></path>
                                    </g>
                                    <g id="编组" transform="translate(0.000000, 22.000000)" fill="url(#linearGradient-6)">
                                        <path d="M266.761876,87.3260423 C241.511009,103.108994 206.150121,120.278191 165.901001,135.46985 C125.648606,150.658229 87.7706671,161.129135 58.3971887,165.962948 C26.1063407,171.275246 4.09355219,169.771903 0.509823067,160.238788 C-2.93584746,151.07766 11.2867075,136.243351 37.0399267,119.698002 C37.8849057,123.66393 38.9374766,127.552885 40.1757211,131.358308 C36.5627679,135.086759 35.0113722,138.224422 35.8855754,140.555777 C36.7776657,142.927257 40.1102189,144.262524 45.4458814,144.652934 C64.4760499,146.042964 108.953341,135.371428 158.788212,116.560339 C208.62661,97.7530366 249.075764,76.369837 262.460646,62.7468832 C266.208382,58.9306088 267.832586,55.7237976 266.940244,53.352317 C266.062766,51.0209625 262.828466,49.6894809 257.653032,49.2733299 C256.065106,45.559516 254.287476,41.9476578 252.339288,38.445074 C282.586717,33.8555511 303.044583,35.5993982 306.48975,44.7605261 C310.07751,54.2936411 294.525511,69.9708518 266.761876,87.3260423" id="Fill-7"></path>
                                    </g>
                                </g>
                                <path d="M8.5,67 C3.80557051,67 -3.26849658e-13,63.1944111 -3.26849658e-13,58.5 C-3.26849658e-13,53.8055705 3.80557051,50 8.5,50 C13.1944295,50 17,53.8055705 17,58.5 C17,63.1944111 13.1944295,67 8.5,67 Z" id="Fill-1" fill="#84DDBB"></path>
                            </g>
                        </g>
                    </g>
                </g>
            </g>
        </g>
    </g>
</svg>
