<?xml version="1.0" encoding="UTF-8"?>
<svg width="58px" height="44px" viewBox="0 0 58 44" version="1.1" xmlns="http://www.w3.org/2000/svg" xmlns:xlink="http://www.w3.org/1999/xlink">
    <title>ç¼–ç»„ 2</title>
    <defs>
        <linearGradient x1="100%" y1="50%" x2="0%" y2="50%" id="linearGradient-1">
            <stop stop-color="#C6F2E1" offset="0%"></stop>
            <stop stop-color="#94E1C0" offset="100%"></stop>
        </linearGradient>
        <polygon id="path-2" points="0 1.94689403e-12 58 1.94689403e-12 58 44 0 44"></polygon>
        <path d="M3.14296299,8.19069521 C1.21509678,12.0409748 0.23754265,16.19563 0.23754265,20.5391086 L0.23754265,20.5391086 C0.23754265,27.4786687 2.77647706,34.0243061 7.40959124,39.102238 L7.40959124,39.102238 C7.47760693,39.1769506 7.54621872,39.2509425 7.61489013,39.3247542 L7.61489013,39.3247542 C7.69220507,39.4076947 7.76987767,39.490395 7.84838482,39.5724948 L7.84838482,39.5724948 C7.94143696,39.6700896 8.0350852,39.7667234 8.12932955,39.8625765 L8.12932955,39.8625765 C8.16008862,39.8938069 8.18977469,39.925818 8.22071259,39.9568681 L8.22071259,39.9568681 C8.23770161,39.9739247 8.25516752,39.9903807 8.27215654,40.0074372 L8.27215654,40.0074372 C8.27895214,40.0142839 8.28568814,40.0213107 8.29248375,40.0280973 L8.29248375,40.0280973 C8.29266258,40.0280372 8.2927818,40.0279772 8.29296063,40.0279772 L8.29296063,40.0279772 C13.4327649,45.1690905 20.2470307,48 27.4936521,48 L27.4936521,48 C31.8048095,48 35.9284319,47.0150434 39.7500671,45.0726969 L39.7500671,45.0726969 C42.8120845,43.5162852 45.5914284,41.3550261 47.8797003,38.7626682 L47.8797003,38.7626682 C43.3461358,41.7847434 38.1046955,43.3723854 32.6038895,43.3723854 L32.6038895,43.3723854 C26.5032221,43.3723854 20.7038267,41.4024121 15.918169,37.7638381 L15.918169,37.7638381 C20.936308,36.0831057 26.3617065,33.9290536 31.7752426,31.4539897 L31.7752426,31.4539897 C37.7464954,28.7225968 43.3846442,25.752352 48.2375427,22.7981427 L48.2375427,22.7981427 C43.1794049,25.437286 37.3348247,28.0390729 31.1731756,30.3781047 L31.1731756,30.3781047 C25.1465446,32.6653062 19.182922,34.5615879 13.7500124,35.9348818 L13.7500124,35.9348818 C13.4848049,35.6873213 13.2223395,35.4356769 12.965239,35.1767054 L12.965239,35.1767054 C7.71962594,29.8916322 4.83071773,22.8648074 4.83071773,15.3905481 L4.83071773,15.3905481 C4.83071773,9.84848534 6.40640456,4.56767636 9.40600964,-1.8189894e-12 L9.40600964,-1.8189894e-12 C6.83291836,2.30557929 4.68777153,5.10573895 3.14296299,8.19069521" id="path-4"></path>
        <linearGradient x1="27.5798464%" y1="47.4682997%" x2="31.2741066%" y2="57.2314468%" id="linearGradient-6">
            <stop stop-color="#89E2C6" offset="0%"></stop>
            <stop stop-color="#8BE4C5" offset="100%"></stop>
        </linearGradient>
    </defs>
    <g id="è¯„å®¡åŽè°ƒæ•´" stroke="none" stroke-width="1" fill="none" fill-rule="evenodd">
        <g id="åå‘è§£æž" transform="translate(-845.000000, -93.000000)">
            <g id="ç¼–ç»„-2" transform="translate(845.000000, 93.000000)">
                <mask id="mask-3" fill="white">
                    <use xlink:href="#path-2"></use>
                </mask>
                <g id="Rectangle-Copy-7å¤‡ä»½-2" opacity="0">
                    <use fill="#94E1C0" xlink:href="#path-2"></use>
                    <path stroke-opacity="0.2" stroke="#35C790" stroke-width="1" d="M57.5,0.5 L57.5,43.5 L0.5,43.5 L0.5,0.5 L57.5,0.5 Z" stroke-linejoin="square" fill="url(#linearGradient-1)"></path>
                </g>
                <g id="ç¬¬åè¡Œæ˜Ÿå¤‡ä»½" mask="url(#mask-3)">
                    <g transform="translate(-0.000000, -1.000000)">
                        <g id="ðŸªç¬¬åè¡Œæ˜Ÿ" stroke-width="1" fill="none" transform="translate(46.500000, 28.000000) scale(-1, 1) translate(-46.500000, -28.000000) translate(10.000000, 0.000000)">
                            <g id="ç¼–ç»„" transform="translate(8.000000, 0.000000)" fill="#8BE4C5">
                                <path d="M55,27.9999697 C55,43.4639424 42.6878601,56 27.4999702,56 C12.3121399,56 0,43.4639424 0,27.9999697 C0,12.535997 12.3121399,0 27.4999702,0 C42.6878601,0 55,12.535997 55,27.9999697" id="Fill-1"></path>
                            </g>
                            <g id="ç¼–ç»„" transform="translate(8.762457, 7.000000)">
                                <mask id="mask-5" fill="white">
                                    <use xlink:href="#path-4"></use>
                                </mask>
                                <g id="Clip-6"></g>
                                <path d="M3.14296299,8.19069521 C1.21509678,12.0409748 0.23754265,16.19563 0.23754265,20.5391086 L0.23754265,20.5391086 C0.23754265,27.4786687 2.77647706,34.0243061 7.40959124,39.102238 L7.40959124,39.102238 C7.47760693,39.1769506 7.54621872,39.2509425 7.61489013,39.3247542 L7.61489013,39.3247542 C7.69220507,39.4076947 7.76987767,39.490395 7.84838482,39.5724948 L7.84838482,39.5724948 C7.94143696,39.6700896 8.0350852,39.7667234 8.12932955,39.8625765 L8.12932955,39.8625765 C8.16008862,39.8938069 8.18977469,39.925818 8.22071259,39.9568681 L8.22071259,39.9568681 C8.23770161,39.9739247 8.25516752,39.9903807 8.27215654,40.0074372 L8.27215654,40.0074372 C8.27895214,40.0142839 8.28568814,40.0213107 8.29248375,40.0280973 L8.29248375,40.0280973 C8.29266258,40.0280372 8.2927818,40.0279772 8.29296063,40.0279772 L8.29296063,40.0279772 C13.4327649,45.1690905 20.2470307,48 27.4936521,48 L27.4936521,48 C31.8048095,48 35.9284319,47.0150434 39.7500671,45.0726969 L39.7500671,45.0726969 C42.8120845,43.5162852 45.5914284,41.3550261 47.8797003,38.7626682 L47.8797003,38.7626682 C43.3461358,41.7847434 38.1046955,43.3723854 32.6038895,43.3723854 L32.6038895,43.3723854 C26.5032221,43.3723854 20.7038267,41.4024121 15.918169,37.7638381 L15.918169,37.7638381 C20.936308,36.0831057 26.3617065,33.9290536 31.7752426,31.4539897 L31.7752426,31.4539897 C37.7464954,28.7225968 43.3846442,25.752352 48.2375427,22.7981427 L48.2375427,22.7981427 C43.1794049,25.437286 37.3348247,28.0390729 31.1731756,30.3781047 L31.1731756,30.3781047 C25.1465446,32.6653062 19.182922,34.5615879 13.7500124,35.9348818 L13.7500124,35.9348818 C13.4848049,35.6873213 13.2223395,35.4356769 12.965239,35.1767054 L12.965239,35.1767054 C7.71962594,29.8916322 4.83071773,22.8648074 4.83071773,15.3905481 L4.83071773,15.3905481 C4.83071773,9.84848534 6.40640456,4.56767636 9.40600964,-1.8189894e-12 L9.40600964,-1.8189894e-12 C6.83291836,2.30557929 4.68777153,5.10573895 3.14296299,8.19069521" id="Fill-5" mask="url(#mask-5)"></path>
                            </g>
                            <g id="ç¼–ç»„" transform="translate(0.000000, 5.000000)" fill="url(#linearGradient-6)">
                                <path d="M63.4319771,20.3491229 C57.4276992,24.1465249 49.0194098,28.2774595 39.4487722,31.9325955 C29.8773557,35.5869422 20.8705495,38.1062579 13.8859765,39.2692806 C6.20769665,40.5474276 0.973385375,40.1857211 0.121228286,37.8920393 C-0.698100537,35.6878581 2.68380992,32.118701 8.80753956,28.1378652 C9.00846293,29.0920733 9.2587485,30.0277619 9.5531845,30.9433523 C8.69407837,31.8404232 8.32517971,32.5953497 8.53305213,33.1562771 C8.74517784,33.7268589 9.53760905,34.0481261 10.8063496,34.1420593 C15.3314386,34.4765027 25.9074718,31.9089149 37.7574575,27.3829388 C49.6082818,22.8578735 59.2264846,17.7130435 62.4092089,14.4353403 C63.3003645,13.517139 63.6865759,12.7455754 63.4743903,12.1749936 C63.2657391,11.6140662 62.4966711,11.2937097 61.2660304,11.1935831 C60.8884455,10.3000339 60.4657516,9.43101541 60.0025016,8.58828848 C67.1948872,7.48404236 72.0594611,7.9036146 72.8786701,10.1077958 C73.7317857,12.4014776 70.0337534,16.173438 63.4319771,20.3491229" id="Fill-7"></path>
                            </g>
                        </g>
                        <path d="M2,16 C0.895428355,16 -1.69642078e-13,15.1045673 -1.69642078e-13,14 C-1.69642078e-13,12.8954284 0.895428355,12 2,12 C3.10457164,12 4,12.8954284 4,14 C4,15.1045673 3.10457164,16 2,16 Z" id="Fill-1" fill="#8DE5CE"></path>
                    </g>
                </g>
            </g>
        </g>
    </g>
</svg>
