<?xml version="1.0" standalone="no"?><!DOCTYPE svg PUBLIC "-//W3C//DTD SVG 1.1//EN" "http://www.w3.org/Graphics/SVG/1.1/DTD/svg11.dtd"><svg t="1637651284986" class="icon" viewBox="0 0 1024 1024" version="1.1" xmlns="http://www.w3.org/2000/svg" p-id="4864" xmlns:xlink="http://www.w3.org/1999/xlink" width="200" height="200"><defs><style type="text/css"></style></defs><path d="M604.4928 812.032v107.1872L512.0512 972.8l-92.4672-53.5808v-107.2128l92.4672 53.5808 92.4416-53.5808zM921.6 445.1072v290.2016l-251.4944 145.1008v-107.2128l158.976-91.4944v-182.9632L921.6 445.1328z m-819.1744 0.0256l92.416 53.6064v182.9632l159.0016 91.4944v107.2128l-251.392-145.1008L102.4 445.184z m568.5504-145.1008l92.5184 53.5808v107.2128l-159.0272 91.4944v182.9888L512 788.9408l-92.4672-53.6064v-182.9888l-159.0272-91.4944v-107.2128l92.4672-53.5808 158.976 91.4944 159.0272-91.4944z m92.5184 236.6208v107.1616l-92.4672 53.5808v-107.1872l92.4672-53.5552z m-502.9888-0.0256l92.4672 53.5808v107.1872l-0.0768-0.0256-92.3904-53.5552v-107.1872zM829.1328 208.5632L921.6 262.144v107.2128l-92.4672 53.5808v-107.1872h-0.0256l-92.416-53.6064 92.4416-53.6064z m-634.2656 0l92.4416 53.6064-92.4416 53.6064v107.1872L102.4 369.408v-107.2128l92.4672-53.6064z m317.0816 0l92.4672 53.6064-92.4672 53.6064v-0.0512l-92.4416-53.5552 92.4416-53.6064zM512 25.6l251.4944 145.0752-92.4672 53.5552-159.0784-91.4688-158.976 91.4688-92.4672-53.5552L512 25.6z" fill="#F0B90B" p-id="4865"></path></svg>