<svg width="36" height="36" viewBox="0 0 36 36" fill="none" xmlns="http://www.w3.org/2000/svg">
<mask id="mask0_1866_38197" style="mask-type:alpha" maskUnits="userSpaceOnUse" x="0" y="0" width="36" height="36">
<path fill-rule="evenodd" clip-rule="evenodd" d="M0 0H36V36H0V0Z" fill="white"/>
</mask>
<g mask="url(#mask0_1866_38197)">
<path fill-rule="evenodd" clip-rule="evenodd" d="M17.9998 0C27.9412 0 36 8.05877 36 17.9998C36 27.9409 27.9412 36 17.9998 36C8.05876 36 0 27.9409 0 17.9998C0 8.05877 8.05876 0 17.9998 0" fill="#F0B90B"/>
<path fill-rule="evenodd" clip-rule="evenodd" d="M13.9057 20.3628L11.5252 18.9963V21.7483L13.9057 23.1152V20.3628ZM9.81108 18.0092L7.43057 16.6426V24.102L13.9245 27.8418V25.0894L9.81108 22.7165V18.0092ZM7.41162 14.6684L9.79213 16.0353V13.2829L12.1726 11.9164L9.81107 10.5306L7.43056 11.8971V14.6684H7.41162ZM15.6195 26.0573V28.8097L18 30.1762L20.3805 28.8097V26.0573L18 27.4242L15.6195 26.0573ZM22.0943 23.1152L24.4745 21.7483V18.9773L22.0943 20.3439V23.1152ZM26.1884 22.7165L22.0943 25.0705V27.8225L28.5882 24.0834V16.6237L26.1884 18.0092V22.7165ZM24.4937 14.27L22.1135 12.9031L18.0001 15.2571L13.9057 12.9031L11.5252 14.27V17.0224L15.6196 19.376V24.0834L18.0001 25.4499L20.3807 24.0834V19.376L24.4937 17.0224V14.27ZM15.6195 11.9164L18 13.2829L20.3805 11.9164L18 10.5306L15.6195 11.9164ZM26.1884 13.2829V16.0353L28.5689 14.6684V11.9164L26.1884 10.5306L23.8079 11.8971L26.1884 13.2829ZM13.9057 10.9293L11.5252 9.56272L18.0001 5.82324L24.4937 9.56272L22.1135 10.9293L18.0001 8.5756L13.9057 10.9293Z" fill="white"/>
</g>
</svg>
