<?xml version="1.0" standalone="no"?><!DOCTYPE svg PUBLIC "-//W3C//DTD SVG 1.1//EN" "http://www.w3.org/Graphics/SVG/1.1/DTD/svg11.dtd"><svg t="1637651638930" class="icon" viewBox="0 0 1024 1024" version="1.1" xmlns="http://www.w3.org/2000/svg" p-id="8209" xmlns:xlink="http://www.w3.org/1999/xlink" width="200" height="200"><defs><style type="text/css"></style></defs><path d="M0 512a512 512 0 1 0 1024 0A512 512 0 1 0 0 512z" fill="#FFA800" p-id="8210"></path><path d="M580.713 637.003c-11.384 6.28-34.168 11.867-56.23 13.493-22.075 1.626-55.084 0.919-55.084 0.919V544.738s31.608-1.611 56.26 0c24.62 1.641 45.296 7.906 54.588 12.559 9.306 4.653 25.57 14.878 25.57 39.288 0 24.396-13.704 34.154-25.104 40.418zM469.4 399.27s15.811-1.4 31.382-1.175c15.571 0.241 29.275 0.708 49.74 6.972 20.45 6.295 32.527 21.625 32.978 39.756 0.482 18.13-7.439 30.208-21.383 37.873-13.93 7.68-33.205 11.866-51.35 12.544-18.117 0.707-41.367 0-41.367 0v-95.97z m204.288 125.726c-16.972-12.785-41.141-17.89-41.141-17.89s20.45-11.866 28.822-23.718c8.358-11.851 12.544-30.208 13.252-39.74 0.678-9.532 2.32-49.498-28.822-72.508-24.094-17.8-51.697-24.862-88.772-27.166v-80.655h-49.74v79.706h-37.872v-79.706h-49.74v79.706h-97.852v51.652h28.762c7.831 0 21.79 0.858 27.709 7.499 5.933 6.626 6.972 10.104 6.972 22.995v205.794c0 4.894-0.919 10.932-5.12 14.878-4.171 3.96-8.343 4.879-18.342 4.879h-29.756l-10.225 59.723h97.852v79.496H469.4v-79.48h37.888v79.48h49.739v-80.806c12.86-0.753 24.847-1.717 31.834-2.635 14.17-1.852 46.23-5.572 76.228-26.504 29.967-20.901 36.713-53.67 37.421-86.678 0.693-32.994-11.866-55.537-28.822-68.322z" fill="#FFFFFF" p-id="8211"></path></svg>