<svg width="36" height="37" viewBox="0 0 36 37" fill="none" xmlns="http://www.w3.org/2000/svg">
<circle cx="18" cy="18.5" r="18" fill="white"/>
<path d="M17.9294 23.6732C21.827 23.6732 25.016 20.4843 25.016 16.5866C25.016 14.9567 24.5199 13.5394 23.5987 12.3346C24.4491 11.6969 25.016 10.6339 25.016 9.5H17.9294C14.0317 9.5 10.8428 12.689 10.8428 16.5866C10.8428 20.4843 14.0317 23.6732 17.9294 23.6732ZM17.9294 12.7598C20.0554 12.7598 21.7562 14.4606 21.7562 16.5866C21.7562 18.7126 20.0554 20.4134 17.9294 20.4134C15.8034 20.4134 14.1026 18.7126 14.1026 16.5866C14.1026 14.4606 15.8034 12.7598 17.9294 12.7598Z" fill="#00DF9B"/>
<path d="M27 25.5865C26.5748 24.5235 25.7244 23.744 24.5906 23.3896C22.748 25.1613 20.3386 26.0826 18 26.0826C15.5906 26.0826 13.252 25.1613 11.4094 23.3896C10.2756 23.744 9.4252 24.5235 9 25.5865C11.4094 28.0668 14.6693 29.3424 17.9291 29.3424C21.189 29.3424 24.4488 28.0668 27 25.5865Z" fill="#2471FE"/>
</svg>
