<?xml version="1.0" encoding="UTF-8"?>
<svg width="20px" height="20px" viewBox="0 0 20 20" version="1.1" xmlns="http://www.w3.org/2000/svg" xmlns:xlink="http://www.w3.org/1999/xlink">
    <title>画板</title>
    <g id="画板" stroke="none" stroke-width="1" fill="none" fill-rule="evenodd">
        <g id="logo" transform="translate(1.000000, 0.000000)" fill-rule="nonzero">
            <g id="编组" transform="translate(0.000000, 0.000000)">
                <path d="M2.57326477e-15,16.2435491 L0.00181077411,16.240833 C0.631054776,15.3454052 1.44590312,14.5957447 2.39067451,14.0439113 L2.4196469,14.0267089 C4.27161612,15.8248076 6.67768221,16.7238569 9.0837483,16.7238569 C11.4898144,16.7238569 13.8958805,15.8248076 15.7483024,14.0267089 L15.7750113,14.0421005 C16.7220462,14.5948393 17.5387053,15.3458579 18.1688547,16.2430964 L18.1688547,16.2430964 C15.6636487,18.747397 12.3743775,20 9.08465369,20 C5.79492983,20 2.50384789,18.7478497 2.57326477e-15,16.2435491 Z" id="路径" fill="#2471FE"></path>
                <path d="M16.2426437,1.28663239e-15 L9.0837483,1.28663239e-15 L9.0837483,1.28663239e-15 L9.0837483,1.28663239e-15 C5.13626075,1.28663239e-15 1.92485287,3.21140788 1.92485287,7.15889543 C1.92485287,11.106383 5.13671344,14.3177909 9.0837483,14.3177909 C13.0307832,14.3177909 16.2426437,11.106383 16.2426437,7.15889543 C16.2426437,5.54956994 15.7084654,4.06247171 14.8085106,2.86555002 C15.6790403,2.21276596 16.2426437,1.17202354 16.2426437,1.28663239e-15 Z M9.0837483,11.0407424 C6.94341331,11.0407424 5.20144862,9.29923042 5.20144862,7.15889543 C5.20144862,5.01856043 6.94296062,3.27704844 9.0837483,3.27704844 C11.224536,3.27704844 12.9655953,5.01856043 12.9655953,7.15889543 C12.9655953,9.29923042 11.224536,11.0407424 9.0837483,11.0407424 Z" id="形状" fill="#00DF9B"></path>
            </g>
        </g>
    </g>
</svg>
