<svg width="36" height="36" viewBox="0 0 36 36" fill="none" xmlns="http://www.w3.org/2000/svg">
<path fill-rule="evenodd" clip-rule="evenodd" d="M18.0002 0C27.9412 0 36 8.05876 36 17.9998C36 27.9409 27.9412 36 18.0002 36C8.05876 36 0 27.9409 0 17.9998C0 8.05876 8.05876 0 18.0002 0" fill="#8247E5"/>
<path fill-rule="evenodd" clip-rule="evenodd" d="M23.9582 14.1485C23.5265 13.8975 22.9653 13.8975 22.4901 14.1485L19.1228 16.0742L16.8346 17.3299L13.467 19.2555C13.0352 19.5069 12.474 19.5069 11.9992 19.2555L9.32224 17.7485C8.89049 17.4975 8.58853 17.0372 8.58853 16.5345V13.5625C8.58853 13.0602 8.84745 12.5998 9.32224 12.3485L11.9558 10.8835C12.3876 10.6321 12.9488 10.6321 13.4239 10.8835L16.0575 12.3485C16.4893 12.5998 16.7916 13.0602 16.7916 13.5625V15.4882L19.0795 14.1905V12.2648C19.0795 11.7625 18.8205 11.3018 18.3457 11.0508L13.467 8.28812C13.0352 8.03677 12.474 8.03677 11.9992 8.28812L7.034 11.0508C6.55921 11.3018 6.30029 11.7625 6.30029 12.2648V17.8322C6.30029 18.3345 6.55921 18.7949 7.034 19.0462L11.9992 21.8089C12.431 22.0602 12.9922 22.0602 13.467 21.8089L16.8346 19.9252L19.1228 18.6275L22.4901 16.7439C22.9219 16.4929 23.4834 16.4929 23.9582 16.7439L26.5918 18.2089C27.0236 18.4602 27.3259 18.9205 27.3259 19.4229V22.3949C27.3259 22.8972 27.0666 23.3579 26.5918 23.6093L23.9582 25.1159C23.5265 25.3673 22.9653 25.3673 22.4901 25.1159L19.8565 23.6509C19.4248 23.3996 19.1228 22.9392 19.1228 22.4369V20.5112L16.8346 21.8089V23.7346C16.8346 24.2369 17.0935 24.6976 17.5683 24.9486L22.5335 27.7116C22.9653 27.9626 23.5265 27.9626 24.0013 27.7116L28.9661 24.9486C29.3979 24.6976 29.7002 24.2369 29.7002 23.7346V18.1672C29.7002 17.6649 29.4413 17.2045 28.9661 16.9532L23.9582 14.1485Z" fill="white"/>
</svg>
