<?xml version="1.0" standalone="no"?><!DOCTYPE svg PUBLIC "-//W3C//DTD SVG 1.1//EN" "http://www.w3.org/Graphics/SVG/1.1/DTD/svg11.dtd"><svg t="1637651379216" class="icon" viewBox="0 0 1024 1024" version="1.1" xmlns="http://www.w3.org/2000/svg" p-id="6473" xmlns:xlink="http://www.w3.org/1999/xlink" width="200" height="200"><defs><style type="text/css"></style></defs><path d="M512 512m-486.4 0a486.4 486.4 0 1 0 972.8 0 486.4 486.4 0 1 0-972.8 0Z" fill="#8247E5" p-id="6474"></path><path d="M672.9984 407.936c-11.6736-6.784-26.8288-6.784-39.68 0l-90.9824 52.0192-61.824 33.9456-91.008 52.0448c-11.6736 6.784-26.8288 6.784-39.68 0L277.504 505.216c-11.6736-6.784-19.84-19.2256-19.84-32.8192v-80.3072c0-13.568 7.0144-26.0096 19.84-32.7936l71.168-39.6032c11.6736-6.784 26.8288-6.784 39.68 0l71.168 39.6032c11.648 6.784 19.8144 19.2256 19.8144 32.7936v52.0448l61.824-35.072v-52.0448c0-13.568-6.9888-26.0096-19.8144-32.768l-131.84-74.6752c-11.6736-6.784-26.8288-6.784-39.68 0l-134.144 74.6496a36.5056 36.5056 0 0 0-19.84 32.7936v150.4512c0 13.568 6.9888 26.0352 19.84 32.8192l134.144 74.6496c11.6736 6.784 26.8544 6.784 39.68 0l91.008-50.8928 61.824-35.072 90.9824-50.9184c11.6736-6.784 26.8544-6.784 39.68 0l71.168 39.6032c11.648 6.784 19.84 19.2256 19.84 32.7936v80.3328c0 13.568-7.0144 26.0096-19.84 32.768l-71.168 40.7552c-11.6736 6.784-26.8288 6.784-39.68 0l-71.168-39.6032c-11.648-6.784-19.8144-19.2256-19.8144-32.7936V579.84l-61.824 35.072v52.0192c0 13.568 6.9888 26.0352 19.8144 32.8192l134.1696 74.6496c11.6736 6.784 26.8288 6.784 39.68 0l134.144-74.6496c11.6736-6.784 19.84-19.2256 19.84-32.8192v-150.4256c0-13.568-6.9888-26.0352-19.84-32.8192l-135.3216-75.776z" fill="#FFFFFF" p-id="6475"></path></svg>