<?xml version="1.0" encoding="UTF-8"?>
<svg width="15px" height="15px" viewBox="0 0 15 15" version="1.1" xmlns="http://www.w3.org/2000/svg" xmlns:xlink="http://www.w3.org/1999/xlink">
    <title>切片</title>
    <defs>
        <linearGradient x1="50%" y1="100%" x2="50%" y2="18.6048851%" id="linearGradient-1">
            <stop stop-color="#A6A5D6" stop-opacity="0" offset="0%"></stop>
            <stop stop-color="#9494CC" offset="100%"></stop>
        </linearGradient>
    </defs>
    <g id="页面-1" stroke="none" stroke-width="1" fill="none" fill-rule="evenodd">
        <g id="确认支付信息-有折扣" transform="translate(-40.000000, -551.000000)">
            <g id="下拉菜单/两个-copy-2" transform="translate(0.000000, 269.000000)">
                <g id="Group-6" transform="translate(24.000000, 92.000000)">
                    <g id="Group-29" transform="translate(16.000000, 110.500000)">
                        <g id="组件/切换代币-copy备份-3" transform="translate(0.000000, 71.000000)">
                            <g id="编组-14" transform="translate(0.000000, 8.000000)">
                                <g id="WeChat" transform="translate(0.000000, 0.500000)">
                                    <g id="编组-16" transform="translate(1.363636, 0.340909)">
                                        <path d="M6.64772727,0 C9.94260788,1.17109709e-15 12.6136364,2.67102848 12.6136364,5.96590909 C12.6136364,9.2607897 9.94260788,11.9318182 6.64772727,11.9318182 L5.319,11.931 L5.31900329,14.3181818 L0,14.3181818 L0,0 L6.64772727,0 Z M6.15484666,3.87784091 C5.10570223,3.87784091 4.25520263,4.72834051 4.25520263,5.77748494 L4.25520263,5.77748494 L4.25520263,8.50142045 L8.05449069,8.50142045 L8.05449069,5.77748494 C8.05449069,4.72834051 7.20399109,3.87784091 6.15484666,3.87784091 Z" id="形状结合" fill="#4C54AA"></path>
                                        <polygon id="路径-2" fill="url(#linearGradient-1)" points="0 14.3181818 5.31900329 14.3181818 5.31900329 7.04127533"></polygon>
                                        <path d="M6.15484666,3.87784091 C6.3394787,3.87784091 6.51795868,3.90418103 6.68673383,3.9533085 C5.89615645,4.18376887 5.31900329,4.91322623 5.31900329,5.77748494 L5.31900329,5.77748494 L5.31900329,8.50142045 L4.25520263,8.50142045 L4.25520263,5.77748494 C4.25520263,4.72834051 5.10570223,3.87784091 6.15484666,3.87784091 Z" id="形状结合" fill="#B9B7DF"></path>
                                    </g>
                                </g>
                            </g>
                        </g>
                    </g>
                </g>
            </g>
        </g>
    </g>
</svg>