<?xml version="1.0" standalone="no"?><!DOCTYPE svg PUBLIC "-//W3C//DTD SVG 1.1//EN" "http://www.w3.org/Graphics/SVG/1.1/DTD/svg11.dtd"><svg t="1637651393558" class="icon" viewBox="0 0 1024 1024" version="1.1" xmlns="http://www.w3.org/2000/svg" p-id="6601" xmlns:xlink="http://www.w3.org/1999/xlink" width="200" height="200"><defs><style type="text/css"></style></defs><path d="M0 512a512 512 0 1 0 1024 0A512 512 0 1 0 0 512z" fill="#EC0928" p-id="6602"></path><path d="M215.108 193.707l2.355 0.307L709.94 307.507c1.366 0.342 2.73 0.922 3.891 1.707l101.684 70.076a11.264 11.264 0 0 1 2.833 15.77l-3.823 5.495a10.547 10.547 0 0 1-1.366 1.98L475 885.827a10.581 10.581 0 0 1-10.376 5.837 10.24 10.24 0 0 1-8.704-7.031c-0.239-0.444-0.546-0.854-0.751-1.366L204.322 208.964a11.264 11.264 0 0 1 13.141-14.95z m29.253 65.297l215.38 578.97 29.97-297.473-245.316-281.497z m520.704 166.673L509.952 543.949l-29.013 287.846 284.126-406.118zM254.874 239.889l245.76 281.941L673.04 336.282l-418.167-96.393z m437.418 105.78L543.334 505.89l228.08-105.71-79.122-54.512z" fill="#FFFFFF" p-id="6603"></path></svg>