<?xml version="1.0" encoding="UTF-8"?>
<svg width="24px" height="24px" viewBox="0 0 24 24" version="1.1" xmlns="http://www.w3.org/2000/svg" xmlns:xlink="http://www.w3.org/1999/xlink">
    <title>画板</title>
    <g id="画板" stroke="none" stroke-width="1" fill="none" fill-rule="evenodd">
        <g id="ic-gogodas" transform="translate(2.550000, -0.000000)" fill-rule="nonzero">
            <path d="M16.8,18.2 C14.8,20 12.2,21 9.4,21 C6.6,21 4,20 2,18.2 C1.2,18.7 0.5,19.5 0,20.5 C2.5,22.7 5.8,24 9.4,24 C13,24 16.3,22.7 18.9,20.5 C18.3,19.4 17.7,18.7 16.8,18.2 Z" id="路径" fill="#FD4974"></path>
            <path d="M9.4,17 C12.8,17 16.4,14.7 16.4,9.8 L16.4,8.1 C16.4,7.8 16.1,7.5 15.8,7.5 L10.4,7.5 C10.1,7.5 9.8,7.8 9.8,8.1 L9.8,9.4 C9.8,9.7 10.1,10 10.4,10 L13.2,10 C13.2,12.8 11.5,14 9.5,14 C7.4,14 5.8,12.4 5.8,9.6 L5.8,7.6 C5.8,4.1 7.4,3.2 9.5,3.2 C11,3.2 12.3,3.4 13,4.9 C13.1,5.1 13.3,5.3 13.6,5.3 L15.7,5.3 C16.1,5.3 16.4,4.9 16.3,4.6 C15.3,1.2 12.3,0 9.4,0 C6,0 2.4,2.3 2.4,7.2 L2.4,9.9 C2.4,14.7 6,17 9.4,17 Z" id="路径" fill="#000000"></path>
        </g>
    </g>
</svg>